<svg width="95" height="59" viewBox="0 0 95 59" fill="none" xmlns="http://www.w3.org/2000/svg">
<path d="M46.9475 58.1265C46.6257 58.1265 46.3254 58.0408 46.0463 57.8906L43.1927 56.1956C42.7634 55.9594 42.9781 55.8737 43.1069 55.8308C43.6861 55.6377 43.7934 55.5946 44.3942 55.2515C44.4586 55.2085 44.5446 55.23 44.6088 55.2729L46.7975 56.5817C46.8832 56.6246 46.9906 56.6246 47.0548 56.5817L55.6161 51.6252C55.7019 51.5823 55.745 51.4963 55.745 51.3892V41.4977C55.745 41.3902 55.7019 41.3046 55.6161 41.2615L47.0548 36.3265C46.969 36.2835 46.8617 36.2835 46.7975 36.3265L38.2361 41.2615C38.1504 41.3044 38.1073 41.4117 38.1073 41.4975V51.389C38.1073 51.475 38.1504 51.5821 38.2361 51.6252L40.575 52.9769C41.8409 53.6206 42.6348 52.8696 42.6348 52.1187V42.3558C42.6348 42.2271 42.7421 42.0983 42.8923 42.0983H43.9865C44.1154 42.0983 44.244 42.2056 44.244 42.3558V52.1187C44.244 53.8137 43.3213 54.8008 41.7121 54.8008C41.2186 54.8008 40.8325 54.8008 39.7381 54.2642L37.4852 52.9769C36.9273 52.6552 36.584 52.0542 36.584 51.4106V41.519C36.584 40.8754 36.9273 40.2744 37.4852 39.9527L46.0463 34.9962C46.5829 34.6958 47.3125 34.6958 47.8488 34.9962L56.41 39.9527C56.9679 40.2744 57.3113 40.8754 57.3113 41.519V51.4106C57.3113 52.0542 56.9679 52.6552 56.41 52.9769L47.8488 57.9335C47.5698 58.0623 47.2479 58.1265 46.9475 58.1265ZM49.5867 51.3248C45.8319 51.3248 45.0594 49.6083 45.0594 48.1492C45.0594 48.0204 45.1667 47.8917 45.3169 47.8917H46.4327C46.5613 47.8917 46.6686 47.9775 46.6686 48.1063C46.8404 49.2435 47.3338 49.8013 49.6082 49.8013C51.4105 49.8013 52.1832 49.3937 52.1832 48.4281C52.1832 47.8702 51.9684 47.4627 49.1577 47.1837C46.8188 46.9475 45.3598 46.4327 45.3598 44.566C45.3598 42.8279 46.819 41.7979 49.265 41.7979C52.0113 41.7979 53.3632 42.7421 53.535 44.8017C53.535 44.8663 53.5134 44.9306 53.4705 44.995C53.4275 45.0379 53.3632 45.0808 53.2988 45.0808H52.183C52.0757 45.0808 51.9684 44.995 51.9471 44.8877C51.6896 43.7077 51.0244 43.3214 49.265 43.3214C47.2909 43.3214 47.0548 44.0081 47.0548 44.5229C47.0548 45.1452 47.3338 45.3383 49.9944 45.6815C52.6336 46.025 53.8782 46.5185 53.8782 48.3637C53.8567 50.2519 52.3119 51.3248 49.5867 51.3248Z" fill="#539E43"/>
<path d="M20.384 19.44C20.384 19.0539 20.1694 18.6889 19.8261 18.4958L10.7285 13.2604C10.5781 13.1745 10.4065 13.1316 10.235 13.11H10.149C9.97749 13.11 9.80576 13.1745 9.65557 13.2604L0.557884 18.4958C0.214428 18.6889 0 19.0537 0 19.44L0.0215356 33.5156C0.0215356 33.7087 0.128842 33.9018 0.300385 33.9877C0.472113 34.095 0.686541 34.095 0.836919 33.9877L6.24403 30.8979C6.5873 30.7048 6.80192 30.34 6.80192 29.9539V23.3666C6.80192 22.9804 7.01634 22.6156 7.3598 22.4225L9.65557 21.0921C9.8273 20.9848 10.0204 20.9418 10.2135 20.9418C10.4065 20.9418 10.5996 20.9848 10.75 21.0921L13.0458 22.4225C13.3892 22.6156 13.6036 22.9802 13.6036 23.3666V29.9539C13.6036 30.34 13.8183 30.7048 14.1615 30.8979L19.5686 33.9877C19.7404 34.095 19.9548 34.095 20.1265 33.9877C20.2983 33.9018 20.4056 33.7087 20.4056 33.5156L20.384 19.44ZM64.113 0.0644676C63.9415 -0.0214892 63.7269 -0.0214892 63.5765 0.0644676C63.405 0.171774 63.2977 0.343317 63.2977 0.536395V14.4835C63.2977 14.6122 63.2334 14.7408 63.1046 14.8268C62.9759 14.891 62.8471 14.891 62.7184 14.8268L60.444 13.5179C60.2773 13.423 60.0887 13.3731 59.8968 13.3731C59.7049 13.3731 59.5163 13.423 59.3496 13.5179L50.2519 18.7748C49.9086 18.9679 49.694 19.3327 49.694 19.7189V30.2112C49.694 30.5973 49.9086 30.9623 50.2519 31.1554L59.3496 36.4123C59.5163 36.5073 59.7049 36.5572 59.8968 36.5572C60.0887 36.5572 60.2773 36.5073 60.444 36.4123L69.5417 31.1554C69.885 30.9623 70.0996 30.5975 70.0996 30.2112V4.05543C70.0996 3.64774 69.885 3.28312 69.5417 3.08985L64.113 0.0644676ZM63.2763 26.7568C63.2763 26.8641 63.2334 26.9498 63.1475 26.9927L60.0363 28.795C59.9929 28.8162 59.9451 28.8272 59.8968 28.8272C59.8484 28.8272 59.8007 28.8162 59.7573 28.795L56.6461 26.9927C56.5602 26.9498 56.5173 26.8425 56.5173 26.7568V23.152C56.5173 23.0447 56.5602 22.9589 56.6461 22.916L59.7573 21.1135C59.8007 21.0923 59.8484 21.0813 59.8968 21.0813C59.9451 21.0813 59.9929 21.0923 60.0363 21.1135L63.1475 22.916C63.2334 22.9587 63.2763 23.0662 63.2763 23.152V26.7568ZM94.3886 23.0662C94.7321 22.8731 94.9251 22.5083 94.9251 22.122V19.5687C94.9251 19.1825 94.7105 18.8177 94.3886 18.6246L85.3553 13.3893C85.1886 13.2944 85.0001 13.2445 84.8082 13.2445C84.6164 13.2445 84.4278 13.2944 84.2611 13.3893L75.1634 18.646C74.82 18.8391 74.6055 19.2039 74.6055 19.5902V30.0825C74.6055 30.4687 74.82 30.8335 75.1634 31.0266L84.1967 36.1762C84.5401 36.3693 84.9476 36.3693 85.2696 36.1762L90.7409 33.1296C90.9126 33.0437 91.0199 32.8506 91.0199 32.6575C91.0199 32.4644 90.9126 32.2714 90.7409 32.1854L81.6003 26.9285C81.4288 26.8214 81.3215 26.6496 81.3215 26.4566V23.1737C81.3215 22.9806 81.4288 22.7875 81.6003 22.7016L84.4542 21.0708C84.5377 21.0182 84.6344 20.9903 84.7331 20.9903C84.8318 20.9903 84.9285 21.0182 85.0121 21.0708L87.8657 22.7016C88.0374 22.8089 88.1448 22.9804 88.1448 23.1737V25.7485C88.1448 25.9416 88.2521 26.1346 88.4236 26.2204C88.5953 26.3277 88.8098 26.3277 88.9815 26.2204L94.3886 23.0662Z" fill="#333333"/>
<path d="M84.6688 22.5727C84.7006 22.5518 84.7379 22.5406 84.776 22.5406C84.8141 22.5406 84.8514 22.5518 84.8832 22.5727L86.6213 23.5812C86.6857 23.6239 86.7286 23.6883 86.7286 23.7743V25.7912C86.7286 25.877 86.6857 25.9414 86.6213 25.9843L84.8832 26.9927C84.8514 27.0137 84.8141 27.0249 84.776 27.0249C84.7379 27.0249 84.7006 27.0137 84.6688 26.9927L82.9307 25.9843C82.8663 25.9414 82.8234 25.877 82.8234 25.7912V23.7743C82.8234 23.6883 82.8663 23.6239 82.9307 23.5812L84.6688 22.5727Z" fill="#539E43"/>
<path d="M35.5969 13.4322C35.4302 13.3373 35.2416 13.2874 35.0498 13.2874C34.8579 13.2874 34.6694 13.3373 34.5027 13.4322L25.4694 18.6458C25.1259 18.8389 24.9329 19.2037 24.9329 19.5899V30.0395C24.9329 30.4256 25.1475 30.7904 25.4694 30.9835L34.5027 36.1976C34.6694 36.2925 34.8579 36.3424 35.0498 36.3424C35.2416 36.3424 35.4302 36.2925 35.5969 36.1976L44.6303 30.9835C44.9736 30.7904 45.1669 30.4256 45.1669 30.0395V19.5901C45.1669 19.2039 44.9521 18.8391 44.6303 18.646L35.5969 13.4322Z" fill="url(#paint0_linear_363_6)"/>
<defs>
<linearGradient id="paint0_linear_363_6" x1="1404.65" y1="416.45" x2="414.516" y2="1972.24" gradientUnits="userSpaceOnUse">
<stop stop-color="#41873F"/>
<stop offset="0.3288" stop-color="#418B3D"/>
<stop offset="0.6352" stop-color="#419637"/>
<stop offset="0.9319" stop-color="#3FA92D"/>
<stop offset="1" stop-color="#3FAE2A"/>
</linearGradient>
</defs>
</svg>
